<svg xmlns="http://www.w3.org/2000/svg" width="58" height="58" fill="none" xmlns:v="https://vecta.io/nano"><path d="M18.166 48.032h-7.313c-1.535 0-2.296 0-2.76-.288-.245-.155-.45-.367-.596-.618s-.23-.533-.245-.823c-.029-.544.353-1.196 1.112-2.513l18.053-31.373c.776-1.332 1.17-1.999 1.66-2.243.26-.134.549-.205.842-.205s.582.07.842.205c.488.244.87.911 1.631 2.243l3.724 6.39.015.024c.611.906 1.097 1.89 1.44 2.924.203.817.203 1.699 0 2.528-.344 1.044-.828 2.036-1.44 2.948l-9.488 16.53-.029.056c-.489.986-1.111 1.901-1.849 2.719a5.8 5.8 0 0 1-2.243 1.29c-.773.205-1.631.205-3.357.205zm18.473 0h10.467c1.564 0 2.337 0 2.801-.3.245-.156.45-.368.597-.619s.23-.534.244-.824c.029-.529-.338-1.153-1.073-2.392l-.082-.135-5.244-8.835-.056-.109c-.735-1.223-1.114-1.849-1.59-2.093-.258-.134-.545-.204-.836-.204s-.578.07-.836.204c-.49.244-.87.897-1.631 2.202l-5.247 8.85v.027c-.773 1.305-1.155 1.958-1.129 2.489.015.292.099.576.246.828s.352.467.597.624c.447.288 1.223.288 2.772.288z" fill="#fef6cc"/></svg>