<svg xmlns="http://www.w3.org/2000/svg" width="58" height="58" fill="none" xmlns:v="https://vecta.io/nano"><path d="M29 46.4L7.25 24.94l8.296-13.34h26.907l8.296 13.34L29 46.4zm2.175-19.575v-2.653c3.915.193 7.569.957 8.7 1.945C38.56 27.27 33.85 28.108 29 28.108s-9.56-.838-10.875-1.991c1.119-.991 4.785-1.74 8.7-1.957v2.666h4.35zm-13.05-.718v1.598c1.119.991 4.773 1.74 8.7 1.957v5.863h4.35v-5.873c3.915-.196 7.579-.957 8.7-1.948V24.52c-1.121-.991-4.785-1.752-8.7-1.957V20.3H37.7v-3.262H20.3V20.3h6.525v2.262c-3.927.205-7.581.967-8.7 1.957v1.588z" fill="#fef6cc"/></svg>