<svg xmlns="http://www.w3.org/2000/svg" width="58" height="58" fill="none" xmlns:v="https://vecta.io/nano"><path d="M16.639 13.908L29 7.25l12.361 6.658-4.534 2.465L29 12.168l-7.815 4.205-4.546-2.465zm24.723 8.41l-4.534-2.465L29 24.058l-7.815-4.205-4.543 2.465v4.918l7.806 4.205v8.398L29 42.304l4.543-2.465v-8.398l7.816-4.205.002-4.918zm0 13.328v-4.93l-4.534 2.465v4.918l4.534-2.453zm3.233 1.74l-7.815 4.193v4.93l12.359-6.67V26.523l-4.543 2.453v8.41zm-4.543-19.273l4.531 2.465v4.918l4.555-2.453v-4.93l-4.543-2.465-4.543 2.477v-.012zM24.442 43.367v4.918L29 50.75l4.543-2.465v-4.906L29 45.832l-4.543-2.465h-.015zm-7.803-7.733l4.531 2.465v-4.918l-4.531-2.465v4.93-.012zm7.806-17.521L29 20.578l4.543-2.465L29 15.648l-4.543 2.477-.012-.012zm-11.039 2.465l4.543-2.465-4.531-2.465-4.555 2.477v4.93l4.543 2.453v-4.93zm0 8.398l-4.543-2.453v13.316l12.359 6.67v-4.942l-7.806-4.193v-8.41l-.01.012z" fill="#fef6cc"/></svg>