<svg xmlns="http://www.w3.org/2000/svg" width="58" height="58" fill="#fef6cc" xmlns:v="https://vecta.io/nano"><path d="M29 7.25v16.071l13.594 6.08L29 7.25zm0 0L15.406 29.401 29 23.323V7.25zm0 32.569v10.928l13.594-18.811L29 39.819zm0 10.928V39.819l-13.594-7.883L29 50.748z"/><path d="M29 37.289l13.594-7.885L29 23.321v13.968zm-13.594-7.885L29 37.287V23.323l-13.594 6.08z"/><path d="M29 37.287l-13.594-7.886L29 7.25l13.594 22.151L29 37.287zm-12.69-8.529L28.783 8.434v14.778L16.31 28.758zm-.186.556l12.659-5.624v12.963l-12.658-7.339zm13.094-5.624v12.963l12.646-7.342-12.646-5.621zm0-.479l12.47 5.546-12.47-20.324v14.778zM29 39.648l-13.594-7.724L29 50.75l13.594-18.826L29 39.648zm-12.071-6.363l11.854 6.743v9.679L16.929 33.285zm12.289 6.743v9.679l11.854-16.421-11.854 6.743z" fill-rule="evenodd"/></svg>