<svg xmlns="http://www.w3.org/2000/svg" width="58" height="58" fill="none" xmlns:v="https://vecta.io/nano"><path d="M45.344 24.737c.677-4.58-2.791-7.02-7.567-8.678l1.547-6.17-3.77-.94-1.506 6.017-3.009-.718 1.525-6.061-3.77-.938-1.549 6.192-2.397-.566v-.024l-5.213-1.305-1.003 4.031 2.748.677c1.525.394 1.788 1.397 1.745 2.182l-1.745 7.064.392.131-.413-.087-2.465 9.877c-.174.459-.652 1.155-1.721.87.044.068-2.726-.653-2.726-.653l-1.875 4.297 4.906 1.22 2.683.699-1.571 6.259 3.77.935 1.527-6.191 3.031.783-1.547 6.172 3.77.938 1.549-6.259c6.433 1.221 11.274.744 13.304-5.08 1.634-4.688-.089-7.371-3.468-9.159 2.465-.544 4.316-2.18 4.797-5.515h.022zm-8.613 12.081c-1.158 4.688-9.05 2.136-11.6 1.523l2.071-8.304c2.55.652 10.749 1.895 9.529 6.757v.024zm1.155-12.146c-1.046 4.253-7.632 2.093-9.746 1.571l1.873-7.523c2.139.524 8.985 1.527 7.874 5.952z" fill="#fef6cc"/></svg>