<svg xmlns="http://www.w3.org/2000/svg" width="58" height="58" fill="none" xmlns:v="https://vecta.io/nano"><path d="M44.37 9.969h6.295L37.567 23.94A11.89 11.89 0 0 1 29 27.654a11.84 11.84 0 0 1-8.57-3.714L7.313 9.969h6.317l9.937 10.703c2.91 3.086 7.953 3.086 10.865 0L44.37 9.969zM13.543 48.007H7.25L20.428 34.08c1.106-1.166 2.436-2.095 3.91-2.734s3.063-.972 4.669-.981a11.89 11.89 0 0 1 8.584 3.717L50.75 48.031h-6.295l-10-10.66c-2.912-3.086-7.953-3.086-10.865 0L13.543 48.007z" fill="#fef6cc"/></svg>