<svg xmlns="http://www.w3.org/2000/svg" width="58" height="58" fill="none" xmlns:v="https://vecta.io/nano"><path fill-rule="evenodd" d="M29 50.75A21.69 21.69 0 0 0 50.75 29 21.69 21.69 0 0 0 29 7.25 21.69 21.69 0 0 0 7.25 29 21.69 21.69 0 0 0 29 50.75zm5.981-18.313c0-3.166-1.902-4.253-5.708-4.703-2.719-.367-3.262-1.087-3.262-2.363 0-1.264.911-2.078 2.719-2.078 1.631 0 2.542.541 2.99 1.902a.69.69 0 0 0 .64.447h1.44a.62.62 0 0 0 .453-.177.62.62 0 0 0 .185-.449v-.094c-.367-1.999-1.999-3.901-4.077-4.077v-1.999c0-.367-.273-.64-.72-.72h-1.196c-.367 0-.708.271-.802.72v1.999c-2.719.365-4.526 2.446-4.526 4.715 0 2.992 1.808 4.161 5.614 4.623 2.542.447 3.359.991 3.359 2.446 0 1.443-1.281 2.448-2.992 2.448-2.368 0-3.18-1.005-3.453-2.366-.082-.353-.353-.544-.626-.544h-1.549a.62.62 0 0 0-.449.185.62.62 0 0 0-.177.453v.097c.353 2.257 1.808 3.806 4.799 4.253v2.013c0 .367.271.611.72.708h1.305c.353 0 .599-.246.694-.708v-2.013c2.719-.447 4.621-2.269 4.621-4.717zM19.848 39.21a13.53 13.53 0 0 0 4.531 2.743c.271.191.544.544.544.817v1.276c0 .176 0 .273-.097.353-.08.367-.447.544-.814.367-3.297-1.051-6.175-3.124-8.217-5.918s-3.142-6.165-3.142-9.626 1.1-6.832 3.142-9.626 4.92-4.867 8.217-5.918c.097-.082.271-.082.367-.082.367.082.544.355.544.72v1.266c0 .459-.176.732-.544.909a13.41 13.41 0 0 0-8.062 8.062 13.51 13.51 0 0 0 3.528 14.657m13.325-25.165c.082-.367.45-.544.817-.367 2.492.809 4.755 2.202 6.599 4.063a16.43 16.43 0 0 1 4.003 6.635c2.719 8.603-1.999 17.767-10.602 20.486-.097.08-.273.08-.367.08-.367-.08-.544-.353-.544-.72v-1.264c0-.462.176-.732.544-.911 1.853-.669 3.535-1.738 4.929-3.131s2.462-3.076 3.131-4.928a13.5 13.5 0 0 0 .837-5.23c-.069-1.782-.491-3.532-1.24-5.15s-1.812-3.071-3.126-4.276-2.854-2.138-4.531-2.744c-.273-.191-.544-.544-.544-.911v-1.264c0-.191 0-.273.097-.367" fill="#fef6cc"/></svg>