<svg xmlns="http://www.w3.org/2000/svg" width="1322" height="58" fill="#fef6cc" xmlns:v="https://vecta.io/nano"><path d="M29 7.25v16.071l13.594 6.08L29 7.25zm0 0L15.406 29.401 29 23.323V7.25zm0 32.569v10.928l13.594-18.811L29 39.819zm0 10.928V39.819l-13.594-7.883L29 50.748z"/><path d="M29 37.289l13.594-7.885L29 23.321v13.968zm-13.594-7.885L29 37.287V23.323l-13.594 6.08z"/><path d="M29 37.287l-13.594-7.886L29 7.25l13.594 22.151L29 37.287zm-12.69-8.529L28.783 8.434v14.778L16.31 28.758zm-.186.556l12.659-5.624v12.963l-12.658-7.339zm13.094-5.624v12.963l12.646-7.342-12.646-5.621zm0-.479l12.47 5.546-12.47-20.324v14.778zM29 39.648l-13.594-7.724L29 50.75l13.594-18.826L29 39.648zm-12.071-6.363l11.854 6.743v9.679L16.929 33.285zm12.289 6.743v9.679l11.854-16.421-11.854 6.743z" fill-rule="evenodd"/><path d="M329.857 37.727l-3.888 1.523 1.875-7.53 3.915-1.576 5.653-22.893h13.949l-4.133 16.856 3.833-1.552-1.849 7.45-3.862 1.578-2.31 9.845h20.989l-2.366 9.321h-35.015l3.209-13.023zM503 46.4l-21.75-21.46 8.296-13.34h26.908l8.296 13.34L503 46.4zm2.175-19.575v-2.653c3.915.193 7.569.957 8.7 1.945-1.315 1.153-6.025 1.991-10.875 1.991s-9.56-.838-10.875-1.991c1.119-.991 4.785-1.74 8.7-1.957v2.666h4.35zm-13.05-.718v1.598c1.119.991 4.773 1.74 8.7 1.957v5.863h4.35v-5.873c3.915-.196 7.579-.957 8.7-1.948V24.52c-1.121-.991-4.785-1.752-8.7-1.957V20.3h6.525v-3.262h-17.4V20.3h6.525v2.262c-3.927.205-7.581.967-8.7 1.957v1.588z"/><path fill-rule="evenodd" d="M661 50.75A21.69 21.69 0 0 0 682.75 29a21.69 21.69 0 1 0-43.5 0A21.69 21.69 0 0 0 661 50.75zm5.981-18.313c0-3.166-1.902-4.253-5.708-4.703-2.719-.367-3.262-1.087-3.262-2.363 0-1.264.911-2.078 2.718-2.078 1.632 0 2.543.541 2.99 1.902a.69.69 0 0 0 .64.447h1.441a.62.62 0 0 0 .244-.042.61.61 0 0 0 .208-.135c.06-.058.107-.128.139-.206s.048-.16.047-.244v-.094c-.368-1.999-1.999-3.901-4.077-4.077v-1.999c0-.367-.273-.64-.721-.72h-1.196c-.367 0-.708.271-.802.72v1.999c-2.719.365-4.527 2.446-4.527 4.715 0 2.992 1.808 4.161 5.614 4.623 2.543.447 3.36.991 3.36 2.446 0 1.443-1.281 2.448-2.992 2.448-2.369 0-3.181-1.005-3.454-2.366-.082-.353-.353-.544-.626-.544h-1.549c-.083-.001-.166.015-.243.047s-.147.079-.206.139-.104.13-.135.208-.044.161-.042.244v.097c.353 2.257 1.808 3.806 4.8 4.253v2.013c0 .367.271.611.72.708h1.305c.353 0 .599-.246.694-.708v-2.013c2.718-.447 4.62-2.269 4.62-4.717zm-15.133 6.774c1.315 1.204 2.855 2.136 4.531 2.743.271.191.544.544.544.817v1.276c0 .176 0 .273-.097.353-.079.367-.447.544-.814.367-3.297-1.051-6.175-3.124-8.217-5.918s-3.142-6.165-3.142-9.626 1.1-6.832 3.142-9.626 4.92-4.867 8.217-5.918c.097-.082.271-.082.367-.082.368.082.544.355.544.72v1.266c0 .459-.176.732-.544.909a13.41 13.41 0 0 0-4.93 3.132 13.42 13.42 0 0 0-3.132 4.93c-.935 2.517-1.099 5.256-.47 7.867a13.5 13.5 0 0 0 3.999 6.791m13.325-25.165c.082-.367.45-.544.817-.367 2.492.809 4.755 2.202 6.599 4.063a16.43 16.43 0 0 1 4.003 6.635c2.719 8.603-1.999 17.767-10.602 20.486-.097.08-.273.08-.367.08-.368-.08-.544-.353-.544-.72v-1.264c0-.462.176-.732.544-.911a13.41 13.41 0 0 0 8.059-8.06c.622-1.671.907-3.449.838-5.23a13.5 13.5 0 0 0-1.24-5.15 13.51 13.51 0 0 0-7.657-7.02c-.273-.191-.544-.544-.544-.911v-1.264c0-.191 0-.273.097-.367"/><path d="M1308.37 9.969h6.3l-13.1 13.971a11.9 11.9 0 0 1-3.91 2.733 11.88 11.88 0 0 1-4.66.981 11.87 11.87 0 0 1-4.67-.977 11.84 11.84 0 0 1-3.9-2.738l-13.12-13.971h6.32l9.94 10.703c2.91 3.086 7.95 3.086 10.86 0l9.94-10.703zm-30.83 38.038h-6.29l13.18-13.927a11.8 11.8 0 0 1 3.91-2.734 11.89 11.89 0 0 1 4.67-.981c1.61.007 3.19.34 4.67.979s2.81 1.57 3.91 2.738l13.16 13.949h-6.3l-10-10.66c-2.91-3.086-7.95-3.086-10.86 0l-10.05 10.636zM806.639 13.908L819 7.25l12.361 6.658-4.533 2.465L819 12.168l-7.815 4.205-4.546-2.465zm24.722 8.41l-4.533-2.465L819 24.058l-7.815-4.205-4.544 2.465v4.918l7.806 4.205v8.398L819 42.304l4.543-2.465v-8.398l7.816-4.205.002-4.918zm0 13.328v-4.93l-4.533 2.465v4.918l4.533-2.453zm3.234 1.74l-7.816 4.193v4.93l12.359-6.67V26.523l-4.543 2.453v8.41zm-4.544-19.273l4.532 2.465v4.918l4.555-2.453v-4.93l-4.543-2.465-4.544 2.477v-.012zm-15.609 25.254v4.918L819 50.75l4.543-2.465v-4.906L819 45.832l-4.543-2.465h-.015zm-7.803-7.733l4.531 2.465v-4.918l-4.531-2.465v4.93-.012zm7.806-17.521L819 20.578l4.543-2.465L819 15.648l-4.543 2.477-.012-.012zm-11.04 2.465l4.544-2.465-4.532-2.465-4.555 2.477v4.93l4.543 2.453v-4.93zm0 8.398l-4.543-2.453v13.316l12.359 6.67v-4.942l-7.806-4.193v-8.41l-.01.012zm-600.061-4.239c.677-4.58-2.791-7.02-7.567-8.678l1.547-6.17-3.77-.94-1.506 6.017-3.008-.718 1.525-6.061-3.77-.938-1.55 6.192-2.397-.566v-.024l-5.213-1.305-1.003 4.031 2.748.677c1.525.394 1.789 1.397 1.745 2.182L179.38 25.5l.392.131-.414-.087-2.465 9.877c-.174.459-.652 1.155-1.72.87.043.068-2.726-.653-2.726-.653l-1.876 4.297 4.906 1.22 2.683.699-1.571 6.259 3.77.935 1.527-6.191 3.031.783-1.547 6.172 3.77.938 1.549-6.259c6.433 1.221 11.274.744 13.304-5.08 1.634-4.688-.089-7.371-3.468-9.159 2.465-.544 4.316-2.18 4.797-5.515h.022zm-8.613 12.081c-1.158 4.688-9.051 2.136-11.6 1.523l2.071-8.304c2.55.652 10.749 1.895 9.529 6.757v.024zm1.155-12.146c-1.046 4.253-7.632 2.093-9.746 1.571l1.873-7.523c2.138.524 8.985 1.527 7.873 5.952z"/><path fill-rule="evenodd" d="M962.928 13.647h35.822l-8.956 7.678h-34.542l7.676-7.678zm.002 23.031h34.542l-7.649 7.675H955.25l7.68-7.675zm26.864-11.515l-34.544.007 7.68 7.668h34.542l-7.678-7.675z"/><path d="M1124.17 48.032h-7.32c-1.53 0-2.29 0-2.76-.288-.24-.155-.45-.367-.59-.618a1.84 1.84 0 0 1-.25-.823c-.03-.544.36-1.196 1.11-2.513l18.06-31.373c.77-1.332 1.17-1.999 1.66-2.243.26-.134.55-.205.84-.205s.58.07.84.205c.49.244.87.911 1.63 2.243l3.73 6.39.01.024c.61.906 1.1 1.89 1.44 2.924a5.4 5.4 0 0 1 0 2.528c-.34 1.044-.83 2.036-1.44 2.948l-9.49 16.53-.03.056a12.31 12.31 0 0 1-1.84 2.719 5.86 5.86 0 0 1-2.25 1.29c-.77.205-1.63.205-3.35.205zm18.47 0h10.47c1.56 0 2.33 0 2.8-.3.24-.156.45-.368.59-.619.15-.251.23-.534.25-.824.03-.529-.34-1.153-1.08-2.392l-.08-.135-5.24-8.835-.06-.109c-.73-1.223-1.11-1.849-1.59-2.093-.26-.134-.54-.204-.83-.204s-.58.07-.84.204c-.49.244-.87.897-1.63 2.202l-5.25 8.85v.027c-.77 1.305-1.15 1.958-1.13 2.489.02.292.1.576.25.828s.35.467.6.624c.44.288 1.22.288 2.77.288z"/></svg>