<svg xmlns="http://www.w3.org/2000/svg" width="516" height="186" fill="none" xmlns:v="https://vecta.io/nano"><g fill="#fef7cc"><path opacity=".5" d="M92.725 169.996c42.677 0 77.271-34.594 77.271-77.271s-34.594-77.271-77.271-77.271-77.271 34.594-77.271 77.271 34.594 77.271 77.271 77.271z"/><g fill-rule="evenodd"><path d="M117.722 95.144c5.764-1.406 10.022-5.378 11.367-13.515 1.769-11.173-5.95-16.992-16.668-20.933l3.771-15.199-8.5-2.102-3.662 14.813-1.289-.333-5.403-1.328 3.67-14.813-8.731-2.164-3.67 14.813-17.332-4.296-2.496 10.138s6.413 1.399 6.182 1.53c3.438.927 4.026 3.369 3.84 5.231l-4.374 17.231-5.996 24.24c-.471 1.144-1.623 2.797-3.972 2.226.093.108-6.259-1.639-6.259-1.639l-4.173 10.695 16.814 4.574-3.748 15.13 8.438 2.086 3.748-15.122c1.311.38 2.636.688 3.919.986l.145.034c.963.217 1.924.451 2.882.703l-3.748 15.122 8.453 2.094 3.755-15.122c14.55 2.774 25.538 1.476 30.444-12.85 3.949-11.428.255-17.942-7.41-22.231zm-35.877 19.017l.734.224.036.011c6.291 1.864 23.968 7.102 26.374-2.87 2.47-9.618-13.441-13.368-20.6-15.055l-.023-.005-1.993-.479-4.528 18.174zm30.499-33.536c-2.535 10.068-17.587 5.548-22.663 4.018l-.425-.124 4.536-18.182a41.45 41.45 0 0 0 1.816.425l.013.003c6.064 1.361 19.087 4.285 16.724 13.859z"/><path opacity=".5" d="M500.507 64.08c0 26.859-21.868 48.635-48.835 48.635-4.915 0-16.119-1.129-21.567-5.657l-6.815 6.785c-4.01 3.995-2.928 5.169-1.143 7.101.741.811 1.607 1.746 2.279 3.083 0 0 5.679 7.913 0 15.833-3.408 4.52-12.951 10.849-23.846 0l-2.272 2.256s6.808 7.92 1.136 15.841c-3.407 4.52-12.494 9.04-20.445 1.128l-7.944 7.912c-5.455 5.432-12.116 2.264-14.759 0l-6.823-6.784c-6.359-6.336-2.65-13.198 0-15.841l59.051-58.803s-5.68-9.041-5.68-21.481c0-26.859 21.868-48.634 48.835-48.634s48.828 21.775 48.828 48.626z"/></g><path d="M468.71 64.088a17 17 0 0 1-17.031 16.961c-4.507.008-8.833-1.774-12.026-4.954a17 17 0 0 1-5.004-12.007 17 17 0 0 1 1.306-6.503 16.99 16.99 0 0 1 3.695-5.508c1.581-1.576 3.458-2.824 5.522-3.675s4.275-1.286 6.507-1.282a17 17 0 0 1 6.508 1.282c2.064.851 3.941 2.099 5.522 3.675s2.837 3.448 3.695 5.508a17 17 0 0 1 1.306 6.503z"/></g><g opacity=".3"><path d="M284.246 84.444c0-1.161-.461-2.275-1.282-3.095a4.38 4.38 0 0 0-3.096-1.282h-50.736l10.069-10.025c.824-.824 1.287-1.942 1.287-3.108s-.463-2.284-1.287-3.108a4.4 4.4 0 0 0-3.108-1.287c-1.166 0-2.284.463-3.108 1.287l-17.511 17.51c-.607.616-1.018 1.397-1.182 2.247s-.072 1.728.263 2.525a4.38 4.38 0 0 0 4.028 2.714h61.285a4.38 4.38 0 0 0 3.096-1.282c.821-.821 1.282-1.934 1.282-3.095zm17.16 15.847a4.38 4.38 0 0 0-4.028-2.714h-61.285a4.38 4.38 0 0 0-3.096 1.282c-.821.821-1.282 1.934-1.282 3.095a4.38 4.38 0 0 0 4.378 4.378h50.736l-10.069 10.024c-.41.407-.736.891-.958 1.425a4.38 4.38 0 0 0-.337 1.683c0 .578.115 1.15.337 1.684a4.38 4.38 0 0 0 .958 1.424c.407.411.891.736 1.425.959s1.105.336 1.683.336 1.15-.114 1.684-.336 1.017-.548 1.424-.959l17.51-17.51c.608-.615 1.019-1.397 1.183-2.246s.072-1.728-.263-2.525z" fill="#fef7cc"/></g></svg>