<svg xmlns="http://www.w3.org/2000/svg" width="18" height="18" fill="#fef7cc" xmlns:v="https://vecta.io/nano"><path opacity=".5" fill-rule="evenodd" d="M16.5 6.22c0 2.607-2.123 4.721-4.74 4.721-.477 0-1.565-.11-2.093-.549l-.662.659c-.389.388-.284.502-.111.689.072.079.156.169.221.299 0 0 .551.768 0 1.537-.331.439-1.257 1.053-2.315 0l-.221.219s.661.769.11 1.537c-.331.439-1.213.877-1.985.11l-.771.768c-.53.527-1.176.22-1.432 0l-.662-.659c-.617-.615-.257-1.281 0-1.537l5.732-5.707s-.551-.878-.551-2.085c0-2.607 2.123-4.72 4.74-4.72S16.5 3.614 16.5 6.22z"/><path d="M13.414 6.22a1.65 1.65 0 0 1-1.653 1.646 1.65 1.65 0 0 1-1.653-1.646 1.65 1.65 0 0 1 .485-1.166 1.65 1.65 0 0 1 1.168-.481 1.65 1.65 0 0 1 1.168.481 1.65 1.65 0 0 1 .485 1.166z"/></svg>