<svg xmlns="http://www.w3.org/2000/svg" width="18" height="18" fill="#fef7cc" xmlns:v="https://vecta.io/nano"><path opacity=".5" d="M13.475 4.918l-1.373-1.372c-1.16-1.159-1.738-1.739-2.491-1.954s-1.551-.031-3.148.338l-.921.212c-1.344.31-2.016.465-2.476.925S2.453 4.2 2.142 5.543l-.213.921c-.368 1.598-.553 2.396-.338 3.148s.796 1.331 1.955 2.49l1.373 1.372C6.936 15.493 7.944 16.5 9.197 16.5s2.261-1.008 4.278-3.025S16.5 10.45 16.5 9.196s-1.008-2.261-3.025-4.278z"/><path d="M8.36 10.746c-.505-.504-.5-1.229-.199-1.802a.56.56 0 0 1 .064-.717c.093-.093.215-.151.346-.163s.262.021.37.096c.255-.135.535-.207.814-.204.149.001.292.062.396.168a.56.56 0 0 1-.008.795.56.56 0 0 1-.399.161.66.66 0 0 0-.457.208c-.29.29-.214.581-.133.663s.373.158.663-.133c.588-.588 1.603-.783 2.254-.133.505.505.5 1.229.198 1.803a.56.56 0 0 1 .097.369c-.012.131-.069.253-.162.346s-.215.151-.345.163-.261-.021-.37-.095a1.65 1.65 0 0 1-1.104.174c-.072-.015-.141-.044-.202-.085a.56.56 0 0 1-.154-.156c-.041-.062-.069-.131-.083-.203s-.013-.147.001-.22.044-.141.085-.202.095-.114.156-.154.131-.069.203-.083.147-.013.22.001c.133.028.347-.016.531-.2.291-.291.215-.581.133-.663s-.372-.157-.663.133c-.588.588-1.604.783-2.254.132zM7.516 7.72a1.5 1.5 0 0 0 .458-1.066 1.5 1.5 0 0 0-.439-1.074 1.5 1.5 0 0 0-1.074-.439 1.5 1.5 0 0 0-1.066.458 1.5 1.5 0 0 0 .018 2.103 1.5 1.5 0 0 0 2.103.018z"/></svg>